<svg xmlns="http://www.w3.org/2000/svg" xmlns:xlink="http://www.w3.org/1999/xlink" width="64" height="64" viewBox="0 0 64 64">
  <g opacity=".5">
    <defs>
      <path id="a" d="M0 0h64v64H0z"/>
    </defs>
    <clipPath id="b">
      <use xlink:href="#a" overflow="visible"/>
    </clipPath>
    <path clip-path="url(#b)" fill-rule="evenodd" clip-rule="evenodd" fill="#E7E7E7" d="M28.955 11.89C27.497 9.9 22.415 5.386 25.022.428c2.45 1.31 1.944 3.418 3.218 5.374C32.22 11.91 40.55 15.205 41.824 23c.318 1.943-.468 5.053-.358 7.88.104 2.653 1.564 4.46-.713 6.45-6.916 1.146-6.127-5.145-7.507-9.673-1.648-5.41-5.788-7.646-8.224-11.465 1.244.784 2.854 1.2 4.29 1.79-1.27-1.714-7.246-5.048-5.094-8.598.854-1.28 3.516 1.61 4.737 2.51"/>
    <path clip-path="url(#b)" fill="none" stroke="#424143" stroke-width="1.289" d="M28.955 11.89C27.497 9.9 22.415 5.386 25.022.428c2.45 1.31 1.944 3.418 3.218 5.374C32.22 11.91 40.55 15.205 41.824 23c.318 1.943-.468 5.053-.358 7.88.104 2.653 1.564 4.46-.713 6.45-6.916 1.146-6.127-5.145-7.507-9.673-1.648-5.41-5.788-7.646-8.224-11.465 1.244.784 2.854 1.2 4.29 1.79-1.27-1.714-7.246-5.048-5.094-8.598.854-1.28 3.516 1.61 4.737 2.51z"/>
    <path clip-path="url(#b)" fill-rule="evenodd" clip-rule="evenodd" fill="#E7E7E7" d="M19.017 60.62c-3.635-.986-13.94 3.352-13.943 0 2.888.265 4.553-.694 7.15-.717-3.564-.525-11.33-.42-10.01-3.58.303-1.16 6.758 1.5 11.083.713-4.23-1.728-11.7-.217-12.87-5.015 5.48 1.34 10.878 2.992 17.16 2.508 5.03-.39 7.324-.748 7.324-.748s3.286-.17 4.832-1.402c1.385-1.105 1.482-1.692 1.788-2.865-1.418 1.033-5.2 3.553-5.72.716.093-1.654 2.832-1.46 3.933-2.51-1.088-.244-3.173 1.592-5.72 1.076-1.16-.19-1.415-1.302-.716-2.865.62-.454.938-1.212 2.146-1.075-1.3-.085-2.41.77-3.477.044-.89-.47-1.12-.956-.863-1.81.19-1.123 1.74-1.316 2.91-1.458-1.878-.33-4.428 1.14-5.313-1.408-.553-1.55.197-3 1.735-2.892-1.04-.63-3.062.123-3.726-1.873-.664-2.217-.413-3.127 3.033-3.03-3.87-1.107-4.643-1.22-4.643-3.544.22-2.55 3.285-2.038 4.98-1.942-1.913-.69-4.003-.904-5.412-1.674-1.024-1.07-1.195-2.052.048-3.343.037-.55 2.858 0 4.29 0-3.062-.632-7.667-1.105-5.72-5.374.314-.863 3.372-.203 5.004-.36-4.415-.123-8.748-3.714-6.077-8.597 9.584 6.227 20.27 10.844 22.163 22.212.303 1.81.02 3.62 1.074 5.016 1.415 1.87 3.85 2.463 5.003 2.507 7.907.303 10.04-12.276 18.59-8.597 2.225.94.603 3.508 4.292 4.658-10.884 8.842-8.97 24.252-24.668 27.23-4.573.866-7.722-.57-13.586 0C19.2 61.19 9 65.127 7.577 63.126c4.023-.626 7.586-1.712 11.44-2.506"/>
    <path clip-path="url(#b)" fill="none" stroke="#424143" stroke-width="1.289" d="M19.017 60.62c-3.635-.986-13.94 3.352-13.943 0 2.888.265 4.553-.694 7.15-.717-3.564-.525-11.33-.42-10.01-3.58.303-1.16 6.758 1.5 11.083.713-4.23-1.728-11.7-.217-12.87-5.015 5.48 1.34 10.878 2.992 17.16 2.508 5.03-.39 7.324-.748 7.324-.748s3.286-.17 4.832-1.402c1.385-1.105 1.482-1.692 1.788-2.865-1.418 1.033-5.2 3.553-5.72.716.093-1.654 2.832-1.46 3.933-2.51-1.088-.244-3.173 1.592-5.72 1.076-1.16-.19-1.415-1.302-.716-2.865.62-.454.938-1.212 2.146-1.075-1.3-.085-2.41.77-3.477.044-.89-.47-1.12-.956-.863-1.81.19-1.123 1.74-1.316 2.91-1.458-1.878-.33-4.428 1.14-5.313-1.408-.553-1.55.197-3 1.735-2.892-1.04-.63-3.062.123-3.726-1.873-.664-2.217-.413-3.127 3.033-3.03-3.87-1.107-4.643-1.22-4.643-3.544.22-2.55 3.285-2.038 4.98-1.942-1.913-.69-4.003-.904-5.412-1.674-1.024-1.07-1.195-2.052.048-3.343.037-.55 2.858 0 4.29 0-3.062-.632-7.667-1.105-5.72-5.374.314-.863 3.372-.203 5.004-.36-4.415-.123-8.748-3.714-6.077-8.597 9.584 6.227 20.27 10.844 22.163 22.212.303 1.81.02 3.62 1.074 5.016 1.415 1.87 3.85 2.463 5.003 2.507 7.907.303 10.04-12.276 18.59-8.597 2.225.94.603 3.508 4.292 4.658-10.884 8.842-8.97 24.252-24.668 27.23-4.573.866-7.722-.57-13.586 0C19.2 61.19 9 65.127 7.577 63.126c4.023-.626 7.586-1.712 11.44-2.506z"/>
  </g>
</svg>
